<?xml version="1.0" encoding="UTF-8" standalone="no"?>
<svg xmlns="http://www.w3.org/2000/svg" xmlns:xlink="http://www.w3.org/1999/xlink" width="48" height="48" version="1.0">
  <defs>
    <linearGradient id="a">
      <stop offset="0" stop-color="#fff"/>
      <stop offset="1" stop-color="#fff" stop-opacity="0"/>
    </linearGradient>
    <linearGradient id="b">
      <stop offset="0"/>
      <stop offset="1" stop-opacity="0"/>
    </linearGradient>
    <linearGradient id="c">
      <stop offset="0" stop-color="#f0f0ee"/>
      <stop offset="1" stop-color="#a1a196"/>
    </linearGradient>
    <linearGradient xlink:href="#a" id="g" x1="433.35385" x2="449.21295" y1="53.938446" y2="101.3146" gradientUnits="userSpaceOnUse"/>
    <radialGradient xlink:href="#b" id="d" cx="319.375" cy="89.75" r="21.125" fx="319.375" fy="89.75" gradientTransform="matrix(1 0 0 .33136 0 60.010355)" gradientUnits="userSpaceOnUse"/>
    <radialGradient xlink:href="#b" id="e" cx="319.375" cy="89.75" r="21.125" fx="319.375" fy="89.75" gradientTransform="matrix(1 0 0 .33136 0 60.010355)" gradientUnits="userSpaceOnUse"/>
    <radialGradient xlink:href="#c" id="f" cx="21.628534" cy="7.3292775" r="5.8947372" fx="21.628534" fy="7.3292775" gradientTransform="matrix(19.74797 -5.29145 2.5727 9.60146 433.52527 94.074612)" gradientUnits="userSpaceOnUse"/>
  </defs>
  <path fill="url(#d)" d="M340.5 89.75a21.125 7 0 1 1-42.25 0 21.125 7 0 1 1 42.25 0z" opacity=".35" transform="matrix(.95762 0 0 .57551 -281.83874 -8.166328)"/>
  <path fill="url(#e)" d="M340.5 89.75a21.125 7 0 1 1-42.25 0 21.125 7 0 1 1 42.25 0z" transform="matrix(.8284 0 0 .42857 -240.57111 5.021436)"/>
  <path fill="url(#f)" fill-rule="evenodd" stroke="#555753" stroke-linejoin="round" stroke-width=".99999988" d="M889.5 50.5c-6.63601 0-12.03124 5.80331-12.03125 12.96875 0 3.599306 1.36878 6.866679 3.5625 9.21875-6.24362 1.886219-10.53125 5.909018-10.53125 11.25.00001 2.703455 1.11784 7.272278 5 8.3125.00001.000001.0625 1.09375.0625 1.09375C876.81952 93.54547 878.54253 94.5 889.5 94.5c.0111 0 .0201.000004.0312 0 10.95747 0 12.68048-.954534 13.9375-1.15625 0 0 .0625-1.093753.0625-1.09375 3.88216-1.040222 4.99999-5.609049 5-8.3125 0-5.349112-4.3034-9.367438-10.5625-11.25 2.19372-2.352071 3.5625-5.619444 3.5625-9.21875C901.53125 56.303311 896.13601 50.5 889.5 50.5z" overflow="visible" style="marker:none" transform="translate(-865.50001 -49.51429)"/>
  <path fill="none" stroke="url(#g)" stroke-linejoin="round" stroke-width=".99999988" d="M439.5 51.65625c-5.97091 0-10.87499 5.219703-10.875 11.8125 0 3.310083 1.25426 6.297703 3.25 8.4375a1.1409117 1.1409117 0 0 1-.5 1.875c-2.97609.899087-5.44403 2.29879-7.125 4.03125-1.68097 1.73246-2.59375 3.759779-2.59375 6.125 0 1.194497.23808 2.874396.90625 4.28125.66817 1.406854 1.65455 2.518373 3.21875 2.9375a1.1409117 1.1409117 0 0 1 .84375 1.03125v.21875c.59306.140865 1.0244.282499 2.40625.46875 1.88623.254232 5.02314.46875 10.46875.46875h.0312c5.44561 0 8.58252-.214517 10.46875-.46875 1.38185-.186251 1.81319-.327886 2.40625-.46875.004-.0696 0-.21875 0-.21875a1.1409117 1.1409117 0 0 1 .8438-1.03125c1.5642-.419126 2.55058-1.530646 3.21875-2.9375.66817-1.406854.90625-3.086755.90625-4.28125 0-2.368629-.90737-4.392969-2.59375-6.125s-4.17203-3.133681-7.15625-4.03125a1.1409117 1.1409117 0 0 1-.5-1.875c1.99574-2.139797 3.25-5.127417 3.25-8.4375 0-6.592794-4.90409-11.8125-10.875-11.8125z" overflow="visible" style="marker:none" transform="translate(-415.5 -49.51429)"/>
  <path fill="#babdb6" stroke="#fff" stroke-dashoffset=".3612" stroke-linecap="square" stroke-linejoin="round" stroke-width="1.5" d="m21 10.985708 6.09026 6.090264m0-6.090264L21 17.075972"/>
  <path fill="#babdb6" stroke="#2e3436" stroke-dashoffset=".3612" stroke-linecap="square" stroke-linejoin="round" d="m21 9.985708 6.09026 6.090264m0-6.090264L21 16.075972"/>
</svg>